<svg xmlns="http://www.w3.org/2000/svg" version="1.1" xmlns:xlink="http://www.w3.org/1999/xlink" xmlns:svgjs="http://svgjs.dev/svgjs" width="2000" height="1500" viewBox="0 0 2000 1500"><rect width="2000" height="1500" fill="#000000"></rect><g transform="matrix(0.75,0,0,0.75,248.85902629123007,93.90668016194331)"><svg viewBox="0 0 282 247" data-background-color="#bdbfde" preserveAspectRatio="xMidYMid meet" height="1751" width="2000" xmlns="http://www.w3.org/2000/svg" xmlns:xlink="http://www.w3.org/1999/xlink"><g id="tight-bounds" transform="matrix(1,0,0,1,0.21450305724874852,-0.09999999999999432)"><svg viewBox="0 0 281.5709938855025 247.2" height="247.2" width="281.5709938855025"><g><svg viewBox="0 0 395.52 347.2394036431112" height="247.2" width="281.5709938855025"><g transform="matrix(1,0,0,1,0,229.48230736111512)"><svg viewBox="0 0 395.52 117.75709628199608" height="117.75709628199608" width="395.52"><g id="textblocktransform"><svg viewBox="0 0 395.52 117.75709628199608" height="117.75709628199608" width="395.52" id="textblock"><g><svg viewBox="0 0 395.52 63.51255087817117" height="63.51255087817117" width="395.52"><g transform="matrix(1,0,0,1,0,0)"><svg width="395.52" viewBox="3.5 -28.75 179.34 28.8" height="63.51255087817117" data-palette-color="#58454b"><path d="M3.5-14.75L3.5-25.3 9.2-28.75 19.5-28.75 19.5-22.85 9.6-22.85 9.6-17.2 19.5-17.2 19.5-11.35 9.2-11.35 3.5-14.75ZM37.95-3.4L37.95-13.75 32.05-17.2 21.75-17.2 21.75-11.35 31.65-11.35 31.65-5.65 21.95-5.65 21.95 0 32.05 0 37.95-3.4ZM3.5-9.1L9.8-9.1 9.8-5.65 19.5-5.65 19.5 0 9.35 0 3.5-3.4 3.5-9.1ZM31.65-19.45L37.95-19.45 37.95-25.3 32.05-28.75 21.75-28.75 21.75-22.85 31.65-22.85 31.65-19.45ZM42.85 0.05L42.85-28.75 49-28.75 49-22 56.6-22 56.6-17.2 49-17.2 49 0.05 42.85 0.05ZM72.6 0.05L72.6-18.55 66.95-22 58.8-22 58.8-17.2 66.3-17.2 66.3 0.05 72.6 0.05ZM77.5-3.5L77.5-18.55 83.34-22 91.25-22 91.25-17.3 83.75-17.3 83.75-5.4 91.25-5.4 91.25-0.05 83.34-0.05 77.5-3.5ZM106.84-3.5L106.84-18.55 101-22 93.05-22 93.05-17.3 100.59-17.3 100.59-5.4 93.05-5.4 93.05-0.05 101-0.05 106.84-3.5ZM145.04-18.55L145.04-12.85 139.14-9.4 131.14-9.4 131.14-13.25 138.69-13.25 138.69-17.35 131.14-17.35 131.14-22.05 139.14-22.05 145.04-18.55ZM138.49-6.95L145.04-6.95 145.04-3.45 139.14 0 131.14 0 131.14-5.3 138.49-5.3 138.49-6.95ZM114.84-18.55L114.84-3.45 120.74 0 128.69 0 128.69-5.3 121.14-5.3 121.14-9.4 128.69-9.4 128.69-13.25 121.14-13.25 121.14-17.35 128.69-17.35 128.69-22.05 120.74-22.05 114.84-18.55ZM182.84-9.7L182.84-3.45 177.14 0 169.09 0 169.09-5.25 176.79-5.25 176.79-9.3 169.24-9.3 169.24-13.2 177.14-13.2 182.84-9.7ZM153.04-12.75L153.04-18.4 158.74-21.85 166.84-21.85 166.84-17.2 159.34-17.2 159.34-13.2 166.84-13.2 166.84-9.3 158.74-9.3 153.04-12.75ZM153.04-6.95L159.34-6.95 159.34-5.25 166.84-5.25 166.84 0 158.74 0 153.04-3.45 153.04-6.95ZM182.84-15.05L176.59-15.05 176.59-17.2 169.09-17.2 169.09-21.85 177.14-21.85 182.84-18.4 182.84-15.05Z" opacity="1" transform="matrix(1,0,0,1,0,0)" fill="#ffffff" class="wordmark-text-0" data-fill-palette-color="primary" id="text-0"></path></svg></g></svg></g><g transform="matrix(1,0,0,1,94.28513283043957,78.50633983928631)"><svg viewBox="0 0 206.94973433912085 39.25075644270978" height="39.25075644270978" width="206.94973433912085"><g transform="matrix(1,0,0,1,0,0)"><svg width="206.94973433912085" viewBox="3.5 -40.15 213.78 40.55" height="39.25075644270978" data-palette-color="#58454b"><path d="M16.85 0.05L11.6 0.05Q10.3 0.05 8.93-0.48 7.55-1 6.25-1.95L6.25-1.95Q4.95-2.95 4.23-4.42 3.5-5.9 3.5-8L3.5-8 3.5-11.4Q3.5-13.75 6.45-13.75L6.45-13.75Q9.4-13.75 9.4-11.4L9.4-11.4 9.4-8.4Q9.4-7.1 10.18-6.05 10.95-5 12.8-5L12.8-5 15.55-5Q17.4-5 18.18-6.05 18.95-7.1 18.95-8.4L18.95-8.4 18.95-14.45Q18.95-15.7 18.2-16.78 17.45-17.85 15.55-17.85L15.55-17.85 12-17.85Q10.1-17.85 10.1-20.3L10.1-20.3Q10.1-22.85 12-22.85L12-22.85 15.55-22.85Q17.6-22.85 18.28-23.88 18.95-24.9 18.95-26.2L18.95-26.2 18.95-31.3Q18.95-32.55 18.18-33.6 17.4-34.65 15.55-34.65L15.55-34.65 12.8-34.65Q10.95-34.65 10.18-33.6 9.4-32.55 9.4-31.3L9.4-31.3 9.4-29.3Q9.4-26.95 6.45-26.95L6.45-26.95Q3.5-26.95 3.5-29.3L3.5-29.3 3.5-31.75Q3.5-33.75 4.23-35.27 4.95-36.8 6.25-37.75L6.25-37.75 6.2-37.75Q7.5-38.6 8.9-39.15 10.3-39.7 11.6-39.7L11.6-39.7 16.85-39.7Q18.1-39.7 19.5-39.15 20.9-38.6 22.2-37.75L22.2-37.75 22.15-37.75Q23.45-36.8 24.15-35.27 24.85-33.75 24.85-31.75L24.85-31.75 24.85-25.8Q24.85-23.4 23.95-21.95L23.95-21.95Q23.65-21.55 23.35-21.1 23.05-20.65 22.85-20.4L22.85-20.4 23.55-19.2 24.05-18.65Q24.85-17.4 24.85-14.85L24.85-14.85 24.85-8Q24.85-5.9 24.15-4.42 23.45-2.95 22.15-1.95L22.15-1.95Q20.85-1 19.5-0.48 18.15 0.05 16.85 0.05L16.85 0.05ZM50.45-1.75L50.45-25.4 40.8-25.4Q38.75-25.4 38.1-24.2L38.1-24.2Q37.4-23.15 37.4-21.75L37.4-21.75 37.4-7.35Q37.4-6.05 38.2-5.38 39-4.7 40.85-4.7L40.85-4.7 46-4.7Q47.8-4.7 47.8-2.35L47.8-2.35Q47.8-1.35 47.37-0.68 46.95 0 46 0L46 0 39.95 0Q36.8 0 34.35-1.6L34.35-1.6Q31.9-3.1 31.9-7.3L31.9-7.3 31.9-22.2Q31.9-24.25 32.55-25.75 33.2-27.25 34.6-28.2L34.6-28.2Q37.25-30.1 39.9-30.1L39.9-30.1 50.45-30.1 50.45-37.6Q50.45-40 53.2-40L53.2-40Q55.95-40 55.95-37.6L55.95-37.6 55.95-2.1Q55.95 0.3 53.2 0.3L53.2 0.3Q52.15 0.3 51.3-0.08 50.45-0.45 50.45-1.75L50.45-1.75ZM93.04-1.95L93.04-21.75Q93.04-22.4 92.84-23.03 92.64-23.65 92.34-24.2L92.34-24.2Q91.69-25.4 89.64-25.4L89.64-25.4 86.44-25.4Q84.39-25.4 83.69-24.2L83.69-24.2Q83.09-23.05 83.09-21.75L83.09-21.75 83.09-1.95Q83.09 0.4 80.34 0.4L80.34 0.4Q77.49 0.4 77.49-1.95L77.49-1.95 77.49-22.2Q77.49-26.3 80.19-28.2L80.19-28.2Q82.94-30.1 85.54-30.1L85.54-30.1 90.59-30.1Q91.74-30.1 93.14-29.65 94.54-29.2 95.84-28.25L95.84-28.25Q97.09-29.2 98.47-29.65 99.84-30.1 101.09-30.1L101.09-30.1 106.09-30.1Q108.74-30.1 111.39-28.2L111.39-28.2Q114.14-26.35 114.14-22.2L114.14-22.2 114.14-1.95Q114.14 0.4 111.34 0.4L111.34 0.4Q108.54 0.4 108.54-1.95L108.54-1.95 108.54-21.75Q108.54-22.4 108.39-23.05 108.24-23.7 107.84-24.25L107.84-24.25 107.89-24.2Q107.49-24.85 106.89-25.13 106.29-25.4 105.14-25.4L105.14-25.4 101.99-25.4Q99.89-25.4 99.24-24.2L99.24-24.2Q98.59-23.1 98.59-21.75L98.59-21.75 98.59-1.95Q98.59 0.4 95.84 0.4L95.84 0.4Q93.04 0.4 93.04-1.95L93.04-1.95ZM128.24-30.1L136.24-30.1Q137.54-30.1 138.92-29.55 140.29-29 141.59-28.15L141.59-28.15 141.54-28.15Q142.84-27.2 143.54-25.68 144.24-24.15 144.24-22.15L144.24-22.15 144.24-7.95Q144.24-3.85 141.54-1.9L141.54-1.9Q138.89 0 136.24 0L136.24 0 128.24 0Q126.94 0 125.59-0.45 124.24-0.9 122.94-1.9L122.94-1.9Q120.24-3.8 120.24-7.95L120.24-7.95 120.24-22.15Q120.24-24.15 120.94-25.68 121.64-27.2 122.94-28.15L122.94-28.15 122.89-28.15Q124.14-29 125.54-29.55 126.94-30.1 128.24-30.1L128.24-30.1ZM129.14-4.7L135.34-4.7Q137.19-4.7 137.97-5.75 138.74-6.8 138.74-8L138.74-8 138.74-22.1Q138.74-23.35 137.97-24.38 137.19-25.4 135.34-25.4L135.34-25.4 129.14-25.4Q127.29-25.4 126.52-24.38 125.74-23.35 125.74-22.1L125.74-22.1 125.74-8Q125.74-6.8 126.52-5.75 127.29-4.7 129.14-4.7L129.14-4.7ZM169.09-1.75L169.09-25.4 159.44-25.4Q157.39-25.4 156.74-24.2L156.74-24.2Q156.04-23.15 156.04-21.75L156.04-21.75 156.04-7.35Q156.04-6.05 156.84-5.38 157.64-4.7 159.49-4.7L159.49-4.7 164.64-4.7Q166.44-4.7 166.44-2.35L166.44-2.35Q166.44-1.35 166.01-0.68 165.59 0 164.64 0L164.64 0 158.59 0Q155.44 0 152.99-1.6L152.99-1.6Q150.54-3.1 150.54-7.3L150.54-7.3 150.54-22.2Q150.54-24.25 151.19-25.75 151.84-27.25 153.24-28.2L153.24-28.2Q155.89-30.1 158.54-30.1L158.54-30.1 169.09-30.1 169.09-37.6Q169.09-40 171.84-40L171.84-40Q174.59-40 174.59-37.6L174.59-37.6 174.59-2.1Q174.59 0.3 171.84 0.3L171.84 0.3Q170.79 0.3 169.94-0.08 169.09-0.45 169.09-1.75L169.09-1.75ZM186.69-22.15L186.69-8Q186.69-6.8 187.46-5.75 188.24-4.7 190.09-4.7L190.09-4.7 196.34-4.7Q198.19-4.7 198.96-5.63 199.74-6.55 199.74-7.75L199.74-7.75 199.74-8.3Q199.74-10.65 202.49-10.65L202.49-10.65Q205.24-10.65 205.24-8.3L205.24-8.3 205.24-7.7Q205.24-5.6 204.56-4.25 203.89-2.9 202.54-1.9L202.54-1.9Q199.89 0 197.24 0L197.24 0 188.84 0Q186.19 0 183.69-1.9L183.69-1.9Q182.49-2.9 181.84-4.42 181.19-5.95 181.19-7.95L181.19-7.95 181.19-22.2Q181.19-26.25 183.69-28.2L183.69-28.2Q184.94-29.1 186.26-29.63 187.59-30.15 188.84-30.15L188.84-30.15 197.24-30.15Q198.44-30.15 199.89-29.68 201.34-29.2 202.59-28.4L202.59-28.4Q203.79-27.55 204.51-26.05 205.24-24.55 205.24-22.5L205.24-22.5 205.24-15.75Q205.24-14.6 204.56-13.7 203.89-12.8 202.09-12.8L202.09-12.8 191.29-12.8Q189.49-12.8 189.39-15.15L189.39-15.15Q189.39-17.5 191.29-17.5L191.29-17.5 199.79-17.5 199.74-22.15Q199.74-23.4 198.96-24.43 198.19-25.45 196.34-25.45L196.34-25.45 190.09-25.45Q188.24-25.45 187.46-24.43 186.69-23.4 186.69-22.15L186.69-22.15ZM217.28-37.8L217.28-1.95Q217.28 0.4 214.53 0.4L214.53 0.4Q211.73 0.4 211.73-1.95L211.73-1.95 211.73-37.8Q211.73-40.15 214.53-40.15L214.53-40.15Q217.28-40.15 217.28-37.8L217.28-37.8Z" opacity="1" transform="matrix(1,0,0,1,0,0)" fill="#ffffff" class="slogan-text-1" data-fill-palette-color="secondary" id="text-1"></path></svg></g></svg></g></svg></g></svg></g><g transform="matrix(1,0,0,1,90.5157408,0)"><svg viewBox="0 0 214.48851839999998 214.48851839999998" height="214.48851839999998" width="214.48851839999998"><g><svg></svg></g><g id="icon-0"><svg viewBox="0 0 214.48851839999998 214.48851839999998" height="214.48851839999998" width="214.48851839999998"><g><rect width="195.02567136" height="195.02567136" x="9.731423519999993" y="9.731423519999993" fill="#ffffff" data-fill-palette-color="accent"></rect><rect width="195.02567136" height="195.02567136" x="-5.329070518200751e-15" y="19.462847039999993" fill="#ffffff" opacity="0.5" data-fill-palette-color="accent"></rect></g><g transform="matrix(1,0,0,1,27.80406719999999,47.011402247448515)"><svg viewBox="0 0 158.880384 120.46571390510294" height="120.46571390510294" width="158.880384"><g><svg xmlns="http://www.w3.org/2000/svg" xmlns:xlink="http://www.w3.org/1999/xlink" version="1.1" x="0" y="0" viewBox="3.16268384557997 12.753 94.45852046370501 71.62" enable-background="new 0 0 100 100" xml:space="preserve" height="120.46571390510294" width="158.880384" class="icon-cg-0" data-fill-palette-color="quaternary" id="cg-0"><polygon fill="#000000" points="4.403,76.26 4.403,84.373 7.567,84.373 9.852,81.698 12.136,84.373 13.295,84.373 15.579,81.698   17.864,84.373 19.022,84.373 21.307,81.698 23.591,84.373 24.749,84.373 27.034,81.698 29.318,84.373 30.476,84.373 32.761,81.698   35.045,84.373 36.203,84.373 38.488,81.698 40.772,84.373 42.502,84.373 44.787,81.698 47.071,84.373 48.229,84.373 50.421,81.809   50.888,81.078 73.129,81.078 74.241,82.657 75.707,84.373 76.865,84.373 79.15,81.698 81.435,84.373 82.592,84.373 84.877,81.698   87.161,84.373 88.319,84.373 90.604,81.698 92.889,84.373 96.228,84.373 96.228,76.26 " data-fill-palette-color="quaternary"></polygon><path fill="#000000" d="M97.564 62.18c0-9.354-3.15-11.884-4.391-17.754-1.24-5.871 0-21.954 0-21.954L82.189 22.55l-17.938-9.797 2.218 11.358c-0.128 0.996-0.341 2.493-0.676 4.46h5.317c0.207-0.658 0.814-1.138 1.54-1.138 0.896 0 1.623 0.727 1.623 1.623 0 0.897-0.727 1.623-1.623 1.623-0.725 0-1.332-0.478-1.539-1.134h-5.488c-0.298 1.68-0.676 3.65-1.154 5.899h5.496c0.206-0.658 0.814-1.138 1.54-1.138 0.896 0 1.623 0.726 1.623 1.623 0 0.896-0.727 1.623-1.623 1.623-0.725 0-1.331-0.479-1.539-1.135l-5.707 0.001c-0.261 1.197-0.549 2.465-0.867 3.807-0.123 0.52-0.296 1.026-0.513 1.519h4.795c0.207-0.658 0.814-1.138 1.54-1.138 0.896 0 1.623 0.726 1.623 1.623 0 0.896-0.727 1.623-1.623 1.623-0.725 0-1.331-0.479-1.539-1.134l-5.293 0c-1.025 1.76-2.646 3.342-4.717 4.752h6.572c0.207-0.658 0.814-1.138 1.54-1.138 0.897 0 1.623 0.727 1.623 1.623s-0.726 1.623-1.623 1.623c-0.725 0-1.331-0.479-1.539-1.134l-8.12 0c-0.357 0.209-0.724 0.414-1.1 0.615l4.317 4.318c0.216-0.107 0.457-0.173 0.715-0.173 0.896 0 1.623 0.727 1.623 1.623s-0.727 1.623-1.623 1.623-1.623-0.727-1.623-1.623c0-0.283 0.079-0.545 0.206-0.775l-4.526-4.526c-0.53 0.264-1.075 0.519-1.638 0.767h0.098v6.445c0.632 0.222 1.088 0.817 1.088 1.525 0 0.896-0.726 1.623-1.623 1.623-0.896 0-1.622-0.727-1.622-1.623 0-0.742 0.502-1.362 1.184-1.555v-6.038c-2.223 0.925-4.662 1.743-7.235 2.457v5.842c0.73 0.158 1.279 0.807 1.279 1.585 0 0.896-0.727 1.623-1.623 1.623-0.896 0-1.623-0.727-1.623-1.623 0-0.673 0.409-1.25 0.993-1.496v-5.667c-2.212 0.584-4.512 1.094-6.854 1.533v5.25c0.633 0.222 1.088 0.817 1.088 1.525 0 0.896-0.726 1.623-1.622 1.623-0.896 0-1.623-0.727-1.623-1.623 0-0.743 0.501-1.362 1.183-1.556v-5.042c-2.206 0.395-4.44 0.727-6.663 0.999v5.159c0.73 0.158 1.279 0.806 1.279 1.585 0 0.896-0.726 1.623-1.623 1.623-0.896 0-1.623-0.728-1.623-1.623 0-0.673 0.41-1.25 0.993-1.496V56.22c-2.353 0.271-4.685 0.476-6.949 0.618v5.027c0.682 0.192 1.184 0.812 1.184 1.555 0 0.896-0.727 1.623-1.623 1.623s-1.623-0.727-1.623-1.623c0-0.707 0.456-1.304 1.088-1.525v-5c-1.015 0.057-2.017 0.101-2.997 0.131C-1.324 57.598 3.831 75.161 3.831 75.161l91.825-0.383C98.137 67.524 97.564 62.18 97.564 62.18z" data-fill-palette-color="quaternary"></path></svg></g></svg></g></svg></g></svg></g><g></g></svg></g><defs></defs></svg><rect width="281.5709938855025" height="247.2" fill="none" stroke="none" visibility="hidden"></rect></g></svg></g></svg>